<svg width="25" height="24" viewBox="0 0 25 24" fill="none" xmlns="http://www.w3.org/2000/svg">
<path d="M18.1514 3C18.3964 3.00003 18.6328 3.08996 18.8158 3.25272C18.9988 3.41547 19.1158 3.63975 19.1444 3.883L19.1514 4V20C19.1511 20.2549 19.0535 20.5 18.8786 20.6854C18.7036 20.8707 18.4645 20.9822 18.21 20.9972C17.9556 21.0121 17.705 20.9293 17.5096 20.7657C17.3141 20.6021 17.1885 20.3701 17.1584 20.117L17.1514 20V15H16.1514C15.9065 15 15.6701 14.91 15.4871 14.7473C15.304 14.5845 15.1871 14.3603 15.1584 14.117L15.1514 14V8C15.1514 5.79 16.6514 3 18.1514 3ZM12.1514 3C12.3964 3.00003 12.6328 3.08996 12.8158 3.25272C12.9988 3.41547 13.1158 3.63975 13.1444 3.883L13.1514 4V9C13.1513 9.88687 12.8566 10.7486 12.3136 11.4498C11.7706 12.151 11.0101 12.6519 10.1514 12.874V20C10.1511 20.2549 10.0535 20.5 9.87858 20.6854C9.70361 20.8707 9.46448 20.9822 9.21003 20.9972C8.95559 21.0121 8.70505 20.9293 8.5096 20.7657C8.31414 20.6021 8.18853 20.3701 8.15843 20.117L8.15143 20V12.874C7.32688 12.6608 6.59184 12.1902 6.05319 11.5305C5.51455 10.8708 5.2004 10.0565 5.15643 9.206L5.15143 9V4C5.15171 3.74512 5.24931 3.49997 5.42428 3.31463C5.59925 3.1293 5.83838 3.01777 6.09282 3.00283C6.34726 2.98789 6.59781 3.07067 6.79326 3.23426C6.98871 3.39786 7.11432 3.6299 7.14443 3.883L7.15143 4V9C7.15144 9.35106 7.24385 9.69594 7.41939 9.99997C7.59493 10.304 7.8474 10.5565 8.15143 10.732V4C8.15171 3.74512 8.24931 3.49997 8.42428 3.31463C8.59925 3.1293 8.83838 3.01777 9.09282 3.00283C9.34726 2.98789 9.59781 3.07067 9.79326 3.23426C9.98871 3.39786 10.1143 3.6299 10.1444 3.883L10.1514 4L10.1524 10.732C10.4315 10.5707 10.6674 10.3443 10.8402 10.0722C11.0129 9.80004 11.1173 9.49018 11.1444 9.169L11.1514 9V4C11.1514 3.73478 11.2568 3.48043 11.4443 3.29289C11.6319 3.10536 11.8862 3 12.1514 3Z" fill="#E71D36"/>
</svg>
