<svg width="27" height="26" viewBox="0 0 27 26" fill="none" xmlns="http://www.w3.org/2000/svg">
<path d="M18.6738 7.28058L17.064 5.41575C16.5275 4.79482 17.149 4.25787 17.6859 4.87983L21.9785 9.85234C22.515 10.4733 21.8935 11.0102 21.3571 10.3883L19.7472 8.52397C19.7472 8.52397 19.6622 9.68186 18.4188 10.7552L17.1759 11.8286L21.3516 16.6657C21.5249 16.8665 21.6113 17.1278 21.5919 17.3923C21.5725 17.6567 21.4488 17.9026 21.2481 18.0759L20.6326 18.6078C20.4861 18.7343 20.3061 18.8157 20.1144 18.8419C19.9226 18.8681 19.7274 18.8382 19.5523 18.7557L12.8244 15.5847L7.93683 18.7194L8.79415 20.8027C8.83756 20.9076 8.84217 21.0245 8.80716 21.1324C8.77214 21.2404 8.69979 21.3323 8.60309 21.3917C8.5064 21.4511 8.39169 21.474 8.27958 21.4565C8.16747 21.4389 8.0653 21.3819 7.99141 21.2958L4.32262 17.0459C4.24756 16.9603 4.2056 16.8506 4.20433 16.7368C4.20306 16.6229 4.24256 16.5124 4.31569 16.4251C4.38882 16.3378 4.49076 16.2796 4.60308 16.2609C4.7154 16.2422 4.8307 16.2644 4.92814 16.3233L6.86396 17.4761L10.6781 13.0985L8.52333 5.97967C8.46734 5.79452 8.46625 5.59711 8.5202 5.41135C8.57414 5.2256 8.68079 5.05947 8.82724 4.93311L9.44278 4.40173C9.5422 4.31588 9.65756 4.25045 9.78226 4.20919C9.90697 4.16792 10.0386 4.15163 10.1696 4.16125C10.3006 4.17086 10.4284 4.20619 10.5458 4.26522C10.6631 4.32424 10.7677 4.40581 10.8535 4.50526L15.0292 9.34185L16.2726 8.26898C17.516 7.1956 18.6738 7.28058 18.6738 7.28058Z" fill="#0077B6"/>
</svg>
