<svg width="17" height="24" viewBox="0 0 17 24" fill="none" xmlns="http://www.w3.org/2000/svg">
<g clip-path="url(#clip0_394_633)">
<path d="M4.61597 17.7788C5.31008 18.6634 5.94182 19.5952 6.50661 20.5674C6.98883 21.4818 7.18985 22.1018 7.54227 23.2035C7.7584 23.8122 7.95373 23.9938 8.3737 23.9938C8.83134 23.9938 9.03897 23.6848 9.19938 23.2068C9.5325 22.1664 9.79389 21.3724 10.2063 20.6221C11.0155 19.1736 12.021 17.8864 13.009 16.6493C13.2764 16.2992 15.0057 14.2595 15.7843 12.65C15.7843 12.65 16.7411 10.8821 16.7411 8.41294C16.7411 6.10332 15.7975 4.50146 15.7975 4.50146L13.0806 5.22905L11.4307 9.57462L11.0225 10.1738L10.9409 10.2824L10.8324 10.4183L10.6418 10.6353L10.3695 10.9076L8.90026 12.1046L5.22702 14.2255L4.61597 17.7788Z" fill="#34A853"/>
<path d="M0.824707 12.3525C1.72121 14.4002 3.44999 16.2002 4.61965 17.7799L10.8322 10.4207C10.8322 10.4207 9.957 11.5654 8.36934 11.5654C6.60086 11.5654 5.17217 10.1532 5.17217 8.37251C5.17217 7.15139 5.90682 6.3125 5.90682 6.3125L1.68956 7.44253L0.824707 12.3524V12.3525Z" fill="#FBBC04"/>
<path d="M10.9016 0.378483C12.965 1.04375 14.731 2.44039 15.7993 4.49987L10.8341 10.4167C10.8341 10.4167 11.5688 9.56263 11.5688 8.34909C11.5688 6.52692 10.0344 5.16566 8.37686 5.16566C6.80941 5.16566 5.90918 6.30844 5.90918 6.30844V2.58092L10.9016 0.378418V0.378483Z" fill="#4285F4"/>
<path d="M1.96289 2.99281C3.19526 1.51834 5.36376 0 8.35336 0C9.80383 0 10.8966 0.380796 10.8966 0.380796L5.90458 6.31168H2.36769L1.96289 2.99288V2.99281Z" fill="#1A73E8"/>
<path d="M0.824763 12.3525C0.824763 12.3525 0 10.7374 0 8.39752C0 6.18605 0.859684 4.25297 1.96283 2.99268L5.90734 6.31207L0.824763 12.3525Z" fill="#EA4335"/>
</g>
<defs>
<clipPath id="clip0_394_633">
<rect width="16.7411" height="24" fill="white"/>
</clipPath>
</defs>
</svg>
