<svg width="36" height="36" viewBox="0 0 36 36" fill="none" xmlns="http://www.w3.org/2000/svg">
<path d="M23.86 29.15H12.11C11.8978 29.15 11.6943 29.2343 11.5443 29.3843C11.3943 29.5343 11.31 29.7378 11.31 29.95C11.31 30.1622 11.3943 30.3657 11.5443 30.5157C11.6943 30.6657 11.8978 30.75 12.11 30.75H23.86C24.0722 30.75 24.2757 30.6657 24.4257 30.5157C24.5757 30.3657 24.66 30.1622 24.66 29.95C24.66 29.7378 24.5757 29.5343 24.4257 29.3843C24.2757 29.2343 24.0722 29.15 23.86 29.15Z" fill="#FFB703"/>
<path d="M22 32.15H14C13.7878 32.15 13.5843 32.2343 13.4343 32.3843C13.2843 32.5343 13.2 32.7378 13.2 32.95C13.2 33.1622 13.2843 33.3657 13.4343 33.5157C13.5843 33.6657 13.7878 33.75 14 33.75H22C22.2122 33.75 22.4157 33.6657 22.5657 33.5157C22.7157 33.3657 22.8 33.1622 22.8 32.95C22.8 32.7378 22.7157 32.5343 22.5657 32.3843C22.4157 32.2343 22.2122 32.15 22 32.15Z" fill="#FFB703"/>
<path d="M18 2.25C15.0826 2.25 12.2847 3.40893 10.2218 5.47183C8.15893 7.53473 7 10.3326 7 13.25C6.98257 14.8487 7.32431 16.431 8 17.88C8.33477 18.4967 8.70888 19.0913 9.12 19.66C9.92107 20.7338 10.5924 21.8986 11.12 23.13C11.483 24.4334 11.6813 25.7773 11.71 27.13H17.4V21.61L14.54 18.48L17.54 15.48C17.6922 15.3421 17.8916 15.268 18.0969 15.2731C18.3021 15.2781 18.4976 15.3619 18.6428 15.5072C18.7881 15.6524 18.8719 15.8479 18.8769 16.0531C18.882 16.2584 18.8079 16.4578 18.67 16.61L16.78 18.5L19 21V27.17H24.3C24.3287 25.8173 24.527 24.4734 24.89 23.17C25.4176 21.9386 26.0889 20.7738 26.89 19.7C27.3 19.1117 27.6709 18.4971 28 17.86C28.6757 16.411 29.0174 14.8287 29 13.23C28.9947 10.3161 27.8334 7.52333 25.7711 5.46475C23.7088 3.40617 20.9139 2.25 18 2.25ZM18.45 12L15.72 14.73C15.6472 14.8103 15.5589 14.875 15.4604 14.9201C15.3619 14.9653 15.2552 14.9899 15.1469 14.9926C15.0385 14.9953 14.9308 14.9759 14.8301 14.9357C14.7295 14.8954 14.6381 14.8352 14.5615 14.7585C14.4848 14.6819 14.4246 14.5905 14.3843 14.4899C14.3441 14.3892 14.3247 14.2815 14.3274 14.1731C14.3301 14.0648 14.3547 13.9581 14.3999 13.8596C14.445 13.7611 14.5097 13.6728 14.59 13.6L17.32 10.87C17.3928 10.7897 17.4811 10.725 17.5796 10.6799C17.6781 10.6347 17.7848 10.6101 17.8931 10.6074C18.0015 10.6047 18.1092 10.6241 18.2099 10.6643C18.3105 10.7046 18.4019 10.7648 18.4785 10.8415C18.5552 10.9181 18.6154 11.0095 18.6557 11.1101C18.6959 11.2108 18.7153 11.3185 18.7126 11.4269C18.7099 11.5352 18.6853 11.6419 18.6401 11.7404C18.595 11.8389 18.5303 11.9272 18.45 12Z" fill="#FFB703"/>
</svg>
