<svg width="24" height="24" viewBox="0 0 24 24" fill="none" xmlns="http://www.w3.org/2000/svg">
<path d="M12.624 0.334498C12.5555 0.23178 12.4627 0.147558 12.3539 0.0893078C12.245 0.0310574 12.1235 0.000579834 12 0.000579834C11.8765 0.000579834 11.755 0.0310574 11.6461 0.0893078C11.5373 0.147558 11.4445 0.23178 11.376 0.334498L6.87601 7.0845C6.80085 7.19744 6.75773 7.32865 6.75125 7.46416C6.74477 7.59967 6.77516 7.7344 6.83919 7.854C6.90323 7.9736 6.9985 8.07359 7.11487 8.14333C7.23124 8.21306 7.36434 8.24993 7.50001 8.25H7.64701L4.61401 13.1025C4.54305 13.216 4.50378 13.3465 4.50026 13.4803C4.49675 13.6141 4.52912 13.7465 4.59402 13.8636C4.65892 13.9807 4.75398 14.0783 4.86934 14.1462C4.98469 14.2142 5.11613 14.25 5.25001 14.25H5.53651L3.07951 19.164C3.02221 19.2783 2.9951 19.4054 3.00077 19.5332C3.00643 19.661 3.04467 19.7852 3.11186 19.894C3.17905 20.0028 3.27295 20.0927 3.38465 20.155C3.49634 20.2173 3.62211 20.25 3.75001 20.25H10.5V24H13.5V20.25H20.25C20.3779 20.25 20.5037 20.2173 20.6154 20.155C20.7271 20.0927 20.821 20.0028 20.8881 19.894C20.9553 19.7852 20.9936 19.661 20.9992 19.5332C21.0049 19.4054 20.9778 19.2783 20.9205 19.164L18.465 14.25H18.7515C18.8854 14.25 19.0168 14.2142 19.1322 14.1462C19.2475 14.0783 19.3426 13.9807 19.4075 13.8636C19.4724 13.7465 19.5048 13.6141 19.5012 13.4803C19.4977 13.3465 19.4585 13.216 19.3875 13.1025L16.353 8.25H16.5C16.6357 8.24993 16.7688 8.21306 16.8851 8.14333C17.0015 8.07359 17.0968 7.9736 17.1608 7.854C17.2248 7.7344 17.2552 7.59967 17.2488 7.46416C17.2423 7.32865 17.1992 7.19744 17.124 7.0845L12.624 0.334498Z" fill="#2D6A4F"/>
</svg>
