<svg width="50" height="50" viewBox="0 0 50 50" fill="none" xmlns="http://www.w3.org/2000/svg">
<rect width="50" height="50" fill="#128C7E"/>
<g clip-path="url(#clip0_724_3046)">
<path d="M32.6611 17.2412C30.6152 15.1904 27.8906 14.0625 24.9951 14.0625C19.0186 14.0625 14.1553 18.9258 14.1553 24.9023C14.1553 26.8115 14.6533 28.6768 15.6006 30.3223L14.0625 35.9375L19.8096 34.4287C21.3916 35.293 23.1738 35.7471 24.9902 35.7471H24.9951C30.9668 35.7471 35.9375 30.8838 35.9375 24.9072C35.9375 22.0117 34.707 19.292 32.6611 17.2412ZM24.9951 33.9209C23.374 33.9209 21.7871 33.4863 20.4053 32.666L20.0781 32.4707L16.6699 33.3643L17.5781 30.0391L17.3633 29.6973C16.46 28.2617 15.9863 26.6064 15.9863 24.9023C15.9863 19.9365 20.0293 15.8936 25 15.8936C27.4072 15.8936 29.668 16.8311 31.3672 18.5352C33.0664 20.2393 34.1113 22.5 34.1064 24.9072C34.1064 29.8779 29.9609 33.9209 24.9951 33.9209ZM29.9365 27.1729C29.668 27.0361 28.335 26.3818 28.0859 26.2939C27.8369 26.2012 27.6563 26.1572 27.4756 26.4307C27.2949 26.7041 26.7773 27.3096 26.6162 27.4951C26.46 27.6758 26.2988 27.7002 26.0303 27.5635C24.4385 26.7676 23.3936 26.1426 22.3438 24.3408C22.0654 23.8623 22.6221 23.8965 23.1396 22.8613C23.2275 22.6807 23.1836 22.5244 23.1152 22.3877C23.0469 22.251 22.5049 20.918 22.2803 20.376C22.0605 19.8486 21.8359 19.9219 21.6699 19.9121C21.5137 19.9023 21.333 19.9023 21.1523 19.9023C20.9717 19.9023 20.6787 19.9707 20.4297 20.2393C20.1807 20.5127 19.4824 21.167 19.4824 22.5C19.4824 23.833 20.4541 25.1221 20.5859 25.3027C20.7227 25.4834 22.4951 28.2178 25.2148 29.3945C26.9336 30.1367 27.6074 30.2002 28.4668 30.0732C28.9893 29.9951 30.0684 29.4189 30.293 28.7842C30.5176 28.1494 30.5176 27.6074 30.4492 27.4951C30.3857 27.373 30.2051 27.3047 29.9365 27.1729Z" fill="white"/>
</g>
<defs>
<clipPath id="clip0_724_3046">
<rect width="21.875" height="25" fill="white" transform="translate(14.0625 12.5)"/>
</clipPath>
</defs>
</svg>
