<svg width="28" height="24" viewBox="0 0 28 24" fill="none" xmlns="http://www.w3.org/2000/svg">
<g clip-path="url(#clip0_423_1395)">
<path d="M26.8425 24H0.643578C-0.071506 23.3385 -0.187707 22.7844 0.294975 22.3374L10.9944 0.402235C11.2805 0.134078 11.6201 0 12.0134 0C12.4067 0 12.7464 0.134078 13.0324 0.402235L17.8056 10.1631L18.7173 7.26704C18.9855 6.99888 19.3207 6.8648 19.7229 6.8648C20.1252 6.8648 20.4693 6.99888 20.7553 7.26704L27.1643 22.3374C27.6469 22.7844 27.5397 23.3385 26.8425 24ZM12.0134 3.4324L8.60783 10.2704C8.60783 10.3955 8.59442 10.5743 8.56761 10.8067C8.54079 11.0391 8.53185 11.2089 8.54079 11.3162C8.54973 11.4235 8.57654 11.5441 8.62124 11.6782C8.66593 11.8123 8.75531 11.9017 8.88939 11.9464C9.02347 11.9911 9.21565 12.0045 9.46593 11.9866C9.84135 11.9687 10.1765 11.8659 10.4715 11.6782C10.7665 11.4905 10.9989 11.2939 11.1687 11.0883C11.3386 10.8827 11.571 10.695 11.8659 10.5251C12.1609 10.3553 12.4961 10.2704 12.8715 10.2704C13.1933 10.2704 13.4972 10.3911 13.7833 10.6324C14.0693 10.8737 14.324 11.1687 14.5475 11.5173C14.771 11.8659 15.0034 12.2101 15.2447 12.5497C15.486 12.8894 15.7721 13.1709 16.1028 13.3944C16.4335 13.6179 16.7866 13.7207 17.162 13.7028L12.0134 3.4324Z" fill="#007200"/>
</g>
<defs>
<clipPath id="clip0_423_1395">
<rect width="27.4592" height="24" fill="white"/>
</clipPath>
</defs>
</svg>
