<svg width="25" height="24" viewBox="0 0 25 24" fill="none" xmlns="http://www.w3.org/2000/svg">
<path d="M16.1514 5V4C16.1514 3.46957 15.9407 2.96086 15.5656 2.58579C15.1905 2.21071 14.6818 2 14.1514 2H10.1514C9.62093 2 9.11223 2.21071 8.73715 2.58579C8.36208 2.96086 8.15137 3.46957 8.15137 4V5C7.0905 5 6.07309 5.42143 5.32294 6.17157C4.57279 6.92172 4.15137 7.93913 4.15137 9V20C4.15137 20.5304 4.36208 21.0391 4.73715 21.4142C5.11223 21.7893 5.62093 22 6.15137 22H18.1514C18.6818 22 19.1905 21.7893 19.5656 21.4142C19.9407 21.0391 20.1514 20.5304 20.1514 20V9C20.1514 7.93913 19.7299 6.92172 18.9798 6.17157C18.2296 5.42143 17.2122 5 16.1514 5ZM10.1514 4H14.1514V5H10.1514V4ZM12.1514 9L14.1514 11L12.1514 13L10.1514 11L12.1514 9ZM18.1514 16H9.15137V18H8.15137V16H6.15137V15H18.1514V16Z" fill="#F2542D"/>
</svg>
