<svg width="50" height="50" viewBox="0 0 50 50" fill="none" xmlns="http://www.w3.org/2000/svg">
<rect width="50" height="50" fill="#1DA1F2"/>
<g clip-path="url(#clip0_724_3043)">
<path d="M34.9302 19.908C34.946 20.1301 34.946 20.3522 34.946 20.5743C34.946 27.3477 29.7906 35.1523 20.368 35.1523C17.4651 35.1523 14.7684 34.3115 12.5 32.8522C12.9125 32.8998 13.309 32.9156 13.7373 32.9156C16.1326 32.9156 18.3375 32.1066 20.0983 30.7266C17.8458 30.679 15.9581 29.2037 15.3077 27.1732C15.625 27.2208 15.9422 27.2525 16.2754 27.2525C16.7354 27.2525 17.1955 27.1891 17.6237 27.0781C15.276 26.6021 13.5152 24.54 13.5152 22.0495V21.9861C14.1973 22.3668 14.9905 22.6047 15.8312 22.6364C14.4511 21.7164 13.5469 20.1459 13.5469 18.3693C13.5469 17.4175 13.8007 16.5451 14.2449 15.7836C16.7671 18.8928 20.5583 20.9232 24.8096 21.1453C24.7303 20.7646 24.6827 20.3681 24.6827 19.9715C24.6827 17.1478 26.9669 14.8477 29.8064 14.8477C31.2816 14.8477 32.6141 15.4664 33.55 16.4658C34.708 16.2437 35.8184 15.8154 36.802 15.2285C36.4212 16.4182 35.6122 17.4176 34.5494 18.052C35.5805 17.9411 36.5799 17.6555 37.4999 17.2589C36.802 18.2741 35.9295 19.1783 34.9302 19.908Z" fill="white"/>
</g>
<defs>
<clipPath id="clip0_724_3043">
<rect width="25" height="25" fill="white" transform="translate(12.5 12.5)"/>
</clipPath>
</defs>
</svg>
